<svg xmlns="http://www.w3.org/2000/svg" xmlns:xlink="http://www.w3.org/1999/xlink" width="300" zoomAndPan="magnify" viewBox="0 0 224.87999 225" height="300" preserveAspectRatio="xMidYMid meet" version="1.0"><defs><clipPath id="id1"><path d="M 24 24.164062 L 201.4375 24.164062 L 201.4375 201.070312 L 24 201.070312 Z M 24 24.164062 " clip-rule="nonzero"/></clipPath></defs><path fill="#ffffff" d="M 126.75 112.714844 L 199.039062 184.964844 L 184.898438 199.09375 L 112.609375 126.847656 L 40.320312 199.09375 L 26.179688 184.964844 L 98.46875 112.714844 L 26.179688 40.46875 L 40.320312 26.335938 L 112.609375 98.582031 L 184.898438 26.335938 L 199.039062 40.46875 Z M 126.75 112.714844 " fill-opacity="1" fill-rule="nonzero"/><g clip-path="url(#id1)"><path fill="#000000" d="M 184.898438 201.070312 C 184.394531 201.070312 183.886719 200.878906 183.5 200.492188 L 112.609375 129.640625 L 41.714844 200.492188 C 41.347656 200.863281 40.84375 201.070312 40.320312 201.070312 C 39.796875 201.070312 39.292969 200.863281 38.921875 200.492188 L 24.78125 186.359375 C 24.011719 185.589844 24.011719 184.339844 24.78125 183.566406 L 95.671875 112.714844 L 24.78125 41.863281 C 24.011719 41.09375 24.011719 39.847656 24.78125 39.070312 L 38.921875 24.9375 C 39.292969 24.570312 39.796875 24.363281 40.320312 24.363281 C 40.84375 24.363281 41.347656 24.570312 41.714844 24.9375 L 112.609375 95.789062 L 183.5 24.9375 C 184.273438 24.167969 185.523438 24.167969 186.296875 24.9375 L 200.4375 39.070312 C 201.207031 39.839844 201.207031 41.089844 200.4375 41.863281 L 129.542969 112.714844 L 200.4375 183.566406 C 200.808594 183.9375 201.015625 184.441406 201.015625 184.964844 C 201.015625 185.488281 200.808594 185.992188 200.4375 186.359375 L 186.296875 200.492188 C 185.914062 200.878906 185.402344 201.070312 184.898438 201.070312 Z M 112.609375 124.871094 C 113.113281 124.871094 113.621094 125.066406 114.007812 125.449219 L 184.898438 196.300781 L 196.246094 184.964844 L 125.351562 114.113281 C 124.980469 113.742188 124.773438 113.238281 124.773438 112.714844 C 124.773438 112.191406 124.980469 111.6875 125.351562 111.320312 L 196.246094 40.46875 L 184.898438 29.128906 L 114.007812 99.980469 C 113.238281 100.75 111.980469 100.75 111.210938 99.980469 L 40.320312 29.128906 L 28.972656 40.46875 L 99.867188 111.320312 C 100.636719 112.089844 100.636719 113.335938 99.867188 114.113281 L 28.972656 184.964844 L 40.320312 196.300781 L 111.210938 125.449219 C 111.597656 125.066406 112.105469 124.871094 112.609375 124.871094 Z M 112.609375 124.871094 " fill-opacity="1" fill-rule="nonzero"/></g></svg>