<svg xmlns="http://www.w3.org/2000/svg" xmlns:xlink="http://www.w3.org/1999/xlink" width="300" zoomAndPan="magnify" viewBox="0 0 224.87999 225" height="300" preserveAspectRatio="xMidYMid meet" version="1.0"><defs><clipPath id="id1"><path d="M 18.480469 18.539062 L 206.628906 18.539062 L 206.628906 206.6875 L 18.480469 206.6875 Z M 18.480469 18.539062 " clip-rule="nonzero"/></clipPath></defs><g clip-path="url(#id1)"><path fill="#ffffff" d="M 112.554688 206.6875 C 164.511719 206.6875 206.628906 164.570312 206.628906 112.613281 C 206.628906 60.65625 164.511719 18.539062 112.554688 18.539062 C 60.597656 18.539062 18.480469 60.65625 18.480469 112.613281 C 18.480469 164.570312 60.597656 206.6875 112.554688 206.6875 Z M 62.382812 62.441406 L 62.382812 79.164062 L 162.726562 79.164062 L 162.726562 62.441406 Z M 62.382812 146.0625 L 62.382812 162.789062 L 162.726562 162.789062 L 162.726562 146.0625 Z M 162.726562 120.976562 L 62.382812 120.976562 L 62.382812 104.253906 L 162.726562 104.253906 Z M 162.726562 120.976562 " fill-opacity="1" fill-rule="evenodd"/></g></svg>