<svg xmlns="http://www.w3.org/2000/svg" xmlns:xlink="http://www.w3.org/1999/xlink" width="300" zoomAndPan="magnify" viewBox="0 0 224.87999 225" height="300" preserveAspectRatio="xMidYMid meet" version="1.0"><defs><clipPath id="id1"><path d="M 13.703125 45.105469 L 210.835938 45.105469 L 210.835938 180.027344 L 13.703125 180.027344 Z M 13.703125 45.105469 " clip-rule="nonzero"/></clipPath><clipPath id="id2"><path d="M 160.238281 45.105469 L 210.835938 45.105469 L 210.835938 95.515625 L 160.238281 95.515625 Z M 160.238281 45.105469 " clip-rule="nonzero"/></clipPath></defs><g clip-path="url(#id1)"><path fill="#ffffff" d="M 193.386719 74.03125 L 194.523438 95.28125 L 210.851562 94.355469 L 208.222656 45.105469 L 200.378906 45.222656 L 160.667969 45.808594 L 160.859375 62.621094 L 181.625 62.3125 L 114.757812 131.632812 L 81.804688 97.472656 L 75.996094 103.496094 L 13.703125 168.074219 L 25.234375 180.027344 L 81.804688 121.382812 L 114.757812 155.546875 L 120.566406 149.523438 L 193.386719 74.03125 " fill-opacity="1" fill-rule="evenodd"/></g><g clip-path="url(#id2)"><path fill="#ffffff" d="M 194.523438 95.28125 L 210.851562 94.355469 L 208.222656 45.105469 L 200.378906 45.222656 L 160.667969 45.808594 L 160.859375 62.621094 L 193.453125 62.226562 L 194.523438 95.28125 " fill-opacity="1" fill-rule="evenodd"/></g></svg>