<svg xmlns="http://www.w3.org/2000/svg" xmlns:xlink="http://www.w3.org/1999/xlink" width="300" zoomAndPan="magnify" viewBox="0 0 224.87999 225" height="300" preserveAspectRatio="xMidYMid meet" version="1.0"><defs><clipPath id="id1"><path d="M 13.425781 13.484375 L 211.320312 13.484375 L 211.320312 211.378906 L 13.425781 211.378906 Z M 13.425781 13.484375 " clip-rule="nonzero"/></clipPath></defs><g clip-path="url(#id1)"><path fill="#ffffff" d="M 112.335938 13.484375 C 57.78125 13.484375 13.425781 57.84375 13.425781 112.394531 C 13.425781 166.988281 57.78125 211.378906 112.335938 211.378906 C 166.890625 211.378906 211.320312 166.988281 211.320312 112.394531 C 211.320312 57.84375 166.890625 13.484375 112.335938 13.484375 Z M 112.335938 27.621094 C 159.269531 27.621094 197.183594 65.5 197.183594 112.394531 C 197.183594 159.328125 159.269531 197.246094 112.335938 197.246094 C 65.402344 197.246094 27.5625 159.328125 27.5625 112.394531 C 27.5625 65.5 65.402344 27.621094 112.335938 27.621094 Z M 72.027344 72.089844 C 69.269531 74.847656 69.230469 79.339844 71.992188 82.101562 L 102.359375 112.433594 L 71.992188 142.765625 C 69.269531 145.527344 69.269531 149.980469 71.992188 152.742188 C 74.753906 155.539062 79.242188 155.539062 82.003906 152.816406 L 112.335938 122.445312 L 142.707031 152.777344 C 145.464844 155.539062 149.957031 155.539062 152.71875 152.742188 C 155.441406 149.980469 155.441406 145.527344 152.71875 142.765625 L 122.347656 112.433594 L 152.71875 82.101562 C 155.476562 79.339844 155.441406 74.847656 152.679688 72.089844 C 149.921875 69.328125 145.464844 69.328125 142.707031 72.089844 L 112.335938 102.421875 L 82.003906 72.089844 C 78.949219 69.035156 74.640625 69.476562 72.027344 72.089844 Z M 72.027344 72.089844 " fill-opacity="1" fill-rule="nonzero"/></g></svg>