<svg xmlns="http://www.w3.org/2000/svg" xmlns:xlink="http://www.w3.org/1999/xlink" width="300" zoomAndPan="magnify" viewBox="0 0 224.87999 225" height="300" preserveAspectRatio="xMidYMid meet" version="1.0"><defs><clipPath id="id1"><path d="M 30 30.058594 L 195 30.058594 L 195 194.972656 L 30 194.972656 Z M 30 30.058594 " clip-rule="nonzero"/></clipPath></defs><path fill="#353f6d" d="M 125.714844 112.605469 L 193.125 179.957031 L 179.941406 193.128906 L 112.527344 125.78125 L 45.117188 193.128906 L 31.929688 179.957031 L 99.34375 112.605469 L 31.929688 45.257812 L 45.117188 32.082031 L 112.527344 99.433594 L 179.941406 32.082031 L 193.125 45.257812 Z M 125.714844 112.605469 " fill-opacity="1" fill-rule="nonzero"/><g clip-path="url(#id1)"><path fill="#353f6d" d="M 179.941406 194.972656 C 179.472656 194.972656 178.996094 194.792969 178.636719 194.433594 L 112.527344 128.386719 L 46.421875 194.433594 C 46.074219 194.777344 45.605469 194.972656 45.117188 194.972656 C 44.628906 194.972656 44.160156 194.777344 43.8125 194.433594 L 30.628906 181.257812 C 29.910156 180.542969 29.910156 179.378906 30.628906 178.65625 L 96.738281 112.605469 L 30.628906 46.558594 C 29.910156 45.839844 29.910156 44.675781 30.628906 43.957031 L 43.8125 30.78125 C 44.160156 30.4375 44.628906 30.242188 45.117188 30.242188 C 45.605469 30.242188 46.074219 30.4375 46.421875 30.78125 L 112.527344 96.828125 L 178.636719 30.78125 C 179.355469 30.0625 180.519531 30.0625 181.242188 30.78125 L 194.429688 43.957031 C 195.148438 44.671875 195.148438 45.835938 194.429688 46.558594 L 128.320312 112.605469 L 194.429688 178.65625 C 194.773438 179 194.96875 179.46875 194.96875 179.957031 C 194.96875 180.445312 194.773438 180.914062 194.429688 181.257812 L 181.242188 194.433594 C 180.886719 194.792969 180.410156 194.972656 179.941406 194.972656 Z M 112.527344 123.941406 C 113 123.941406 113.472656 124.121094 113.832031 124.480469 L 179.941406 190.527344 L 190.519531 179.957031 L 124.410156 113.910156 C 124.066406 113.5625 123.871094 113.09375 123.871094 112.605469 C 123.871094 112.121094 124.066406 111.648438 124.410156 111.304688 L 190.519531 45.257812 L 179.941406 34.6875 L 113.832031 100.734375 C 113.113281 101.453125 111.945312 101.453125 111.226562 100.734375 L 45.117188 34.6875 L 34.539062 45.257812 L 100.648438 111.304688 C 101.363281 112.023438 101.363281 113.1875 100.648438 113.910156 L 34.539062 179.957031 L 45.117188 190.527344 L 111.226562 124.480469 C 111.585938 124.121094 112.058594 123.941406 112.527344 123.941406 Z M 112.527344 123.941406 " fill-opacity="1" fill-rule="nonzero"/></g></svg>