<svg xmlns="http://www.w3.org/2000/svg" xmlns:xlink="http://www.w3.org/1999/xlink" width="300" zoomAndPan="magnify" viewBox="0 0 224.87999 225" height="300" preserveAspectRatio="xMidYMid meet" version="1.0"><defs><clipPath id="id1"><path d="M 5.105469 10 L 219.488281 10 L 219.488281 215.238281 L 5.105469 215.238281 Z M 5.105469 10 " clip-rule="nonzero"/></clipPath></defs><g clip-path="url(#id1)"><path fill="#ffffff" d="M 188.53125 215.261719 L 140.605469 215.261719 C 138.757812 215.261719 137.257812 213.757812 137.257812 211.90625 L 137.257812 143.796875 L 88.511719 143.796875 L 88.511719 211.90625 C 88.511719 213.757812 87.015625 215.261719 85.164062 215.261719 L 36.042969 215.261719 C 34.195312 215.261719 32.695312 213.757812 32.695312 211.90625 L 32.695312 111.890625 L 8.757812 111.890625 C 7.375 111.890625 6.136719 111.039062 5.636719 109.75 C 5.136719 108.460938 5.476562 106.996094 6.496094 106.0625 L 110.027344 11.042969 C 111.304688 9.867188 113.269531 9.867188 114.550781 11.042969 L 218.082031 106.0625 C 219.097656 106.996094 219.441406 108.460938 218.941406 109.75 C 218.441406 111.039062 217.199219 111.890625 215.820312 111.890625 L 191.878906 111.890625 L 191.878906 211.90625 C 191.878906 213.757812 190.382812 215.261719 188.53125 215.261719 Z M 143.957031 208.550781 L 185.183594 208.550781 L 185.183594 108.535156 C 185.183594 106.683594 186.683594 105.183594 188.53125 105.183594 L 207.210938 105.183594 L 112.289062 18.0625 L 17.367188 105.183594 L 36.042969 105.183594 C 37.894531 105.183594 39.390625 106.683594 39.390625 108.535156 L 39.390625 208.550781 L 81.816406 208.550781 L 81.816406 140.441406 C 81.816406 138.589844 83.316406 137.089844 85.164062 137.089844 L 140.605469 137.089844 C 142.457031 137.089844 143.957031 138.589844 143.957031 140.441406 Z M 143.957031 208.550781 " fill-opacity="1" fill-rule="nonzero"/></g></svg>