<svg xmlns="http://www.w3.org/2000/svg" xmlns:xlink="http://www.w3.org/1999/xlink" width="300" zoomAndPan="magnify" viewBox="0 0 224.87999 225" height="300" preserveAspectRatio="xMidYMid meet" version="1.0"><defs><clipPath id="id1"><path d="M 26.730469 12.835938 L 198 12.835938 L 198 212.230469 L 26.730469 212.230469 Z M 26.730469 12.835938 " clip-rule="nonzero"/></clipPath></defs><g clip-path="url(#id1)"><path fill="#ffffff" d="M 185.316406 20.960938 L 186.695312 24.710938 L 181.816406 22.4375 Z M 121.730469 40.511719 C 121.726562 40.515625 121.722656 40.519531 121.71875 40.523438 L 121.714844 40.523438 L 121.671875 40.546875 C 121.6875 40.535156 121.707031 40.523438 121.726562 40.511719 Z M 173.179688 26.082031 L 189.496094 33.679688 L 168.53125 42.65625 L 153.039062 34.585938 Z M 129.476562 44.527344 C 129.476562 44.527344 129.476562 44.527344 129.476562 44.53125 L 129.472656 44.53125 L 129.417969 44.554688 L 129.472656 44.527344 Z M 122.433594 46.808594 C 122.433594 46.820312 122.433594 46.828125 122.433594 46.839844 L 122.402344 46.828125 L 122.429688 46.808594 Z M 123.257812 47.210938 Z M 97.355469 50.734375 C 97.320312 50.773438 97.285156 50.8125 97.253906 50.855469 L 97.25 50.855469 C 97.234375 50.863281 97.222656 50.871094 97.207031 50.875 L 97.207031 50.878906 C 97.253906 50.828125 97.300781 50.78125 97.351562 50.734375 Z M 144.730469 38.089844 L 160.273438 46.191406 L 149.105469 50.972656 C 149.003906 50.960938 148.890625 50.949219 148.765625 50.941406 L 148.679688 50.953125 C 148.621094 50.957031 148.558594 50.964844 148.496094 50.96875 C 148.277344 50.804688 148.039062 50.660156 147.78125 50.542969 L 131.957031 43.480469 L 131.882812 43.511719 L 131.933594 43.46875 L 131.957031 43.480469 Z M 145.722656 57.125 L 145.722656 57.128906 C 145.722656 57.128906 145.722656 57.128906 145.71875 57.132812 C 145.71875 57.128906 145.714844 57.128906 145.710938 57.128906 L 145.707031 57.128906 Z M 79.878906 58.453125 L 79.855469 58.460938 C 79.722656 58.464844 79.609375 58.472656 79.515625 58.480469 L 79.511719 58.480469 C 79.632812 58.464844 79.753906 58.457031 79.875 58.453125 Z M 123.238281 47.132812 C 123.242188 47.140625 123.242188 47.152344 123.246094 47.160156 L 123.242188 47.160156 L 123.195312 47.179688 L 140.191406 54.765625 L 140.1875 54.769531 C 140.183594 54.777344 140.175781 54.789062 140.171875 54.796875 L 140.167969 54.796875 L 126.660156 60.582031 L 126.65625 60.582031 C 126.605469 60.582031 126.554688 60.582031 126.503906 60.582031 L 126.503906 60.585938 L 108.792969 53.257812 L 108.527344 53.371094 L 108.691406 53.21875 L 108.792969 53.257812 L 123.195312 47.179688 L 123.140625 47.15625 Z M 99.722656 57.03125 C 99.757812 57.035156 99.789062 57.039062 99.824219 57.046875 L 99.820312 57.046875 L 99.792969 57.058594 L 117.605469 64.425781 C 117.601562 64.4375 117.597656 64.449219 117.59375 64.464844 L 117.589844 64.464844 L 103.226562 70.613281 L 103.285156 70.644531 L 103.28125 70.644531 C 103.203125 70.65625 103.136719 70.664062 103.082031 70.675781 L 103.226562 70.613281 L 87.6875 62.167969 L 87.621094 62.195312 L 87.65625 62.152344 L 87.6875 62.167969 L 99.792969 57.058594 Z M 79.542969 65.652344 L 95.042969 74.074219 L 95.039062 74.074219 C 95.03125 74.09375 95.023438 74.113281 95.011719 74.128906 L 69.644531 84.988281 L 69.824219 85.066406 L 69.824219 85.070312 C 69.683594 85.082031 69.515625 85.101562 69.316406 85.128906 L 69.644531 84.988281 L 52.035156 77.214844 L 51.882812 77.277344 L 51.980469 77.191406 L 52.035156 77.214844 L 79.234375 65.734375 C 79.339844 65.707031 79.441406 65.679688 79.542969 65.652344 Z M 42.878906 80.769531 L 43.28125 80.910156 L 43.234375 80.929688 L 60.425781 88.515625 C 60.472656 88.640625 60.519531 88.761719 60.570312 88.875 L 60.566406 88.875 L 43.734375 96.082031 L 35.695312 84.109375 L 43.234375 80.929688 Z M 49.179688 95.808594 C 49.289062 95.808594 49.410156 95.8125 49.546875 95.816406 L 50.324219 95.875 C 50.53125 95.886719 50.898438 95.96875 51.421875 96.117188 L 51.101562 96.257812 L 49.460938 96.269531 L 48.003906 96.53125 C 47.699219 96.636719 47.226562 96.75 46.585938 96.863281 C 46.519531 96.890625 46.449219 96.914062 46.382812 96.9375 L 45.3125 96.9375 L 45.6875 97.179688 C 45.90625 97.105469 46.136719 97.023438 46.382812 96.9375 L 49.515625 96.9375 L 46.992188 98.019531 L 45.6875 97.179688 C 45.121094 97.371094 44.652344 97.523438 44.277344 97.636719 C 44.304688 97.601562 44.335938 97.566406 44.363281 97.535156 L 45.019531 96.9375 L 45.3125 96.9375 L 45.140625 96.824219 L 45.242188 96.734375 C 45.359375 96.632812 45.449219 96.570312 45.515625 96.542969 C 46.074219 96.261719 46.722656 96.054688 47.457031 95.921875 L 49.128906 95.808594 C 49.144531 95.808594 49.164062 95.808594 49.179688 95.808594 Z M 45.929688 103.886719 L 63.179688 103.886719 L 46.285156 118.609375 L 45.929688 118.609375 Z M 73.761719 103.886719 L 100.0625 103.886719 L 86.429688 118.609375 L 56.867188 118.609375 Z M 109.539062 103.886719 L 120.984375 103.886719 L 107.976562 118.609375 L 95.90625 118.609375 Z M 130.160156 103.886719 L 144.980469 103.886719 L 132.195312 118.609375 L 117.253906 118.609375 L 129.726562 104.492188 C 129.894531 104.300781 130.035156 104.097656 130.15625 103.886719 Z M 154.179688 103.886719 L 164.394531 103.886719 L 152.046875 118.609375 L 141.40625 118.609375 L 154.035156 104.0625 C 154.085938 104.003906 154.132812 103.945312 154.179688 103.886719 Z M 173.46875 103.886719 L 190.851562 103.886719 L 190.851562 104.808594 L 190.847656 104.808594 C 190.128906 104.953125 189.453125 105.328125 188.933594 105.917969 L 177.742188 118.609375 L 161.121094 118.609375 Z M 190.851562 114.257812 L 190.851562 118.609375 L 187.011719 118.609375 Z M 190.851562 125.558594 L 190.851562 205.300781 L 45.929688 205.304688 L 45.929688 126.058594 L 45.933594 126.0625 C 46.238281 126.144531 46.554688 126.1875 46.867188 126.1875 C 47.570312 126.1875 48.269531 125.972656 48.863281 125.558594 L 48.859375 125.558594 L 152.070312 125.558594 C 152.128906 125.582031 152.1875 125.605469 152.25 125.628906 C 152.636719 125.769531 153.039062 125.835938 153.4375 125.835938 C 153.90625 125.835938 154.371094 125.742188 154.800781 125.558594 L 154.792969 125.558594 Z M 187.320312 12.867188 C 186.863281 12.867188 186.402344 12.960938 185.96875 13.140625 L 173.300781 18.488281 L 172.089844 19 L 122.984375 39.726562 L 122.980469 39.726562 C 122.8125 39.765625 122.640625 39.824219 122.46875 39.902344 C 122.414062 39.941406 122.367188 39.976562 122.320312 40.007812 L 122.316406 40.007812 L 99.632812 49.582031 C 99.503906 49.613281 99.371094 49.652344 99.226562 49.695312 C 99.15625 49.710938 98.867188 49.820312 98.367188 50.027344 L 97.90625 50.238281 C 97.90625 50.238281 97.90625 50.238281 97.902344 50.238281 C 97.878906 50.238281 97.804688 50.292969 97.683594 50.40625 L 97.679688 50.40625 L 42.472656 73.707031 C 42.222656 73.738281 41.976562 73.796875 41.734375 73.886719 C 41.601562 73.960938 41.460938 74.0625 41.3125 74.199219 L 41.308594 74.199219 L 29.105469 79.347656 C 28.152344 79.75 27.425781 80.5625 27.128906 81.554688 C 26.832031 82.546875 26.992188 83.621094 27.570312 84.484375 L 38.832031 101.253906 L 38.828125 101.253906 C 38.859375 101.46875 38.90625 101.703125 38.976562 101.957031 L 38.972656 101.957031 L 38.972656 208.777344 C 38.972656 210.695312 40.53125 212.25 42.453125 212.25 L 194.328125 212.25 C 195.25 212.25 196.136719 211.886719 196.789062 211.234375 C 197.441406 210.582031 197.808594 209.699219 197.808594 208.777344 L 197.808594 100.410156 C 197.808594 98.492188 196.25 96.9375 194.328125 96.9375 L 72.746094 96.9375 C 72.65625 96.929688 72.5625 96.925781 72.46875 96.925781 C 72.378906 96.925781 72.285156 96.929688 72.195312 96.9375 L 59.398438 96.9375 L 59.246094 97 L 59.210938 96.9375 L 59.398438 96.9375 L 102.859375 78.328125 C 103.203125 78.234375 103.539062 78.101562 103.867188 77.941406 C 103.992188 77.878906 104.117188 77.8125 104.238281 77.738281 L 104.238281 77.742188 L 195.699219 38.585938 C 197.398438 37.855469 198.230469 35.925781 197.59375 34.191406 L 190.585938 15.144531 C 190.257812 14.253906 189.578125 13.535156 188.707031 13.15625 C 188.265625 12.964844 187.792969 12.867188 187.320312 12.867188 Z M 187.320312 12.867188 " fill-opacity="1" fill-rule="nonzero"/></g></svg>