<svg xmlns="http://www.w3.org/2000/svg" xmlns:xlink="http://www.w3.org/1999/xlink" width="300" zoomAndPan="magnify" viewBox="0 0 224.87999 225" height="300" preserveAspectRatio="xMidYMid meet" version="1.0"><defs><clipPath id="id1"><path d="M 40.058594 20 L 202.71875 20 L 202.71875 205.636719 L 40.058594 205.636719 Z M 40.058594 20 " clip-rule="nonzero"/></clipPath></defs><g clip-path="url(#id1)"><path fill="#ffffff" d="M 197.148438 102.941406 L 57.339844 22.230469 C 53.789062 20.183594 49.425781 20.183594 45.878906 22.230469 C 42.332031 24.277344 40.144531 28.058594 40.144531 32.15625 L 40.144531 193.597656 C 40.144531 197.695312 42.332031 201.476562 45.878906 203.523438 C 47.652344 204.5625 49.628906 205.0625 51.609375 205.0625 C 53.589844 205.0625 55.566406 204.546875 57.339844 203.523438 L 197.148438 122.8125 C 200.703125 120.761719 202.875 116.980469 202.875 112.882812 C 202.875 108.785156 200.695312 104.996094 197.148438 102.941406 Z M 197.148438 102.941406 " fill-opacity="1" fill-rule="nonzero"/></g></svg>