<svg xmlns="http://www.w3.org/2000/svg" xmlns:xlink="http://www.w3.org/1999/xlink" width="300" zoomAndPan="magnify" viewBox="0 0 224.87999 225" height="300" preserveAspectRatio="xMidYMid meet" version="1.0"><defs><clipPath id="id1"><path d="M 20.058594 8 L 192 8 L 192 180 L 20.058594 180 Z M 20.058594 8 " clip-rule="nonzero"/></clipPath><clipPath id="id2"><path d="M 133 142 L 204 142 L 204 216.953125 L 133 216.953125 Z M 133 142 " clip-rule="nonzero"/></clipPath></defs><g clip-path="url(#id1)"><path fill="#353f6d" d="M 105.539062 179.613281 C 104.140625 179.613281 102.742188 179.578125 101.347656 179.507812 C 99.949219 179.441406 98.554688 179.335938 97.160156 179.199219 C 95.769531 179.0625 94.382812 178.890625 92.996094 178.6875 C 91.613281 178.480469 90.234375 178.242188 88.863281 177.96875 C 87.492188 177.695312 86.128906 177.386719 84.769531 177.046875 C 83.414062 176.707031 82.066406 176.335938 80.726562 175.929688 C 79.386719 175.523438 78.058594 175.082031 76.742188 174.609375 C 75.425781 174.140625 74.121094 173.636719 72.828125 173.097656 C 71.535156 172.5625 70.257812 171.996094 68.992188 171.398438 C 67.726562 170.800781 66.476562 170.167969 65.242188 169.507812 C 64.011719 168.847656 62.792969 168.160156 61.59375 167.4375 C 60.394531 166.71875 59.210938 165.96875 58.046875 165.191406 C 56.886719 164.414062 55.742188 163.609375 54.617188 162.773438 C 53.496094 161.941406 52.390625 161.078125 51.308594 160.191406 C 50.230469 159.300781 49.167969 158.386719 48.132812 157.449219 C 47.097656 156.507812 46.082031 155.542969 45.09375 154.550781 C 44.105469 153.5625 43.140625 152.546875 42.203125 151.511719 C 41.261719 150.472656 40.347656 149.414062 39.460938 148.332031 C 38.574219 147.25 37.710938 146.144531 36.878906 145.019531 C 36.046875 143.894531 35.242188 142.75 34.464844 141.585938 C 33.6875 140.421875 32.9375 139.238281 32.21875 138.039062 C 31.5 136.835938 30.808594 135.621094 30.152344 134.382812 C 29.492188 133.148438 28.863281 131.898438 28.265625 130.632812 C 27.664062 129.367188 27.097656 128.085938 26.5625 126.792969 C 26.027344 125.5 25.523438 124.195312 25.054688 122.875 C 24.582031 121.558594 24.144531 120.226562 23.738281 118.886719 C 23.332031 117.546875 22.957031 116.199219 22.617188 114.839844 C 22.277344 113.480469 21.972656 112.117188 21.699219 110.742188 C 21.425781 109.371094 21.1875 107.992188 20.980469 106.605469 C 20.777344 105.21875 20.605469 103.832031 20.46875 102.4375 C 20.332031 101.042969 20.226562 99.648438 20.160156 98.25 C 20.089844 96.851562 20.058594 95.453125 20.058594 94.050781 C 20.058594 92.652344 20.089844 91.25 20.160156 89.851562 C 20.226562 88.453125 20.332031 87.058594 20.46875 85.664062 C 20.605469 84.269531 20.777344 82.882812 20.980469 81.496094 C 21.1875 80.113281 21.425781 78.730469 21.699219 77.359375 C 21.972656 75.984375 22.277344 74.621094 22.617188 73.261719 C 22.957031 71.902344 23.332031 70.554688 23.738281 69.214844 C 24.144531 67.875 24.582031 66.542969 25.054688 65.226562 C 25.523438 63.90625 26.027344 62.601562 26.5625 61.308594 C 27.097656 60.015625 27.664062 58.734375 28.265625 57.46875 C 28.863281 56.203125 29.492188 54.953125 30.152344 53.71875 C 30.808594 52.484375 31.5 51.265625 32.21875 50.0625 C 32.9375 48.863281 33.6875 47.679688 34.464844 46.515625 C 35.242188 45.351562 36.046875 44.207031 36.878906 43.082031 C 37.710938 41.957031 38.574219 40.855469 39.460938 39.769531 C 40.347656 38.6875 41.261719 37.628906 42.203125 36.589844 C 43.140625 35.554688 44.105469 34.539062 45.09375 33.550781 C 46.082031 32.558594 47.097656 31.59375 48.132812 30.652344 C 49.167969 29.714844 50.230469 28.800781 51.308594 27.910156 C 52.390625 27.023438 53.496094 26.160156 54.617188 25.328125 C 55.742188 24.492188 56.886719 23.6875 58.046875 22.910156 C 59.210938 22.132812 60.394531 21.382812 61.59375 20.664062 C 62.792969 19.941406 64.011719 19.253906 65.242188 18.59375 C 66.476562 17.933594 67.726562 17.304688 68.992188 16.703125 C 70.257812 16.105469 71.535156 15.539062 72.828125 15.003906 C 74.121094 14.464844 75.425781 13.960938 76.742188 13.492188 C 78.058594 13.019531 79.386719 12.582031 80.726562 12.171875 C 82.066406 11.765625 83.414062 11.394531 84.769531 11.054688 C 86.128906 10.714844 87.492188 10.40625 88.863281 10.132812 C 90.234375 9.859375 91.613281 9.621094 92.996094 9.414062 C 94.382812 9.210938 95.769531 9.039062 97.160156 8.902344 C 98.554688 8.765625 99.949219 8.660156 101.347656 8.59375 C 102.742188 8.523438 104.140625 8.488281 105.539062 8.488281 C 106.941406 8.488281 108.339844 8.523438 109.734375 8.59375 C 111.132812 8.660156 112.527344 8.765625 113.917969 8.902344 C 115.3125 9.039062 116.699219 9.210938 118.082031 9.414062 C 119.46875 9.621094 120.847656 9.859375 122.21875 10.132812 C 123.589844 10.40625 124.953125 10.714844 126.3125 11.054688 C 127.667969 11.394531 129.015625 11.765625 130.355469 12.171875 C 131.695312 12.582031 133.023438 13.019531 134.339844 13.492188 C 135.65625 13.960938 136.960938 14.464844 138.253906 15.003906 C 139.546875 15.539062 140.824219 16.105469 142.089844 16.703125 C 143.355469 17.304688 144.605469 17.933594 145.835938 18.59375 C 147.070312 19.253906 148.289062 19.941406 149.488281 20.664062 C 150.6875 21.382812 151.871094 22.132812 153.035156 22.910156 C 154.195312 23.6875 155.339844 24.492188 156.464844 25.328125 C 157.585938 26.160156 158.691406 27.023438 159.769531 27.910156 C 160.851562 28.800781 161.910156 29.714844 162.949219 30.652344 C 163.984375 31.59375 164.996094 32.558594 165.988281 33.550781 C 166.976562 34.539062 167.941406 35.554688 168.878906 36.589844 C 169.820312 37.628906 170.734375 38.6875 171.621094 39.769531 C 172.507812 40.855469 173.367188 41.957031 174.203125 43.082031 C 175.035156 44.207031 175.839844 45.351562 176.617188 46.515625 C 177.394531 47.679688 178.144531 48.863281 178.863281 50.0625 C 179.582031 51.265625 180.273438 52.484375 180.929688 53.71875 C 181.589844 54.953125 182.21875 56.203125 182.816406 57.46875 C 183.414062 58.734375 183.984375 60.015625 184.519531 61.308594 C 185.054688 62.601562 185.554688 63.90625 186.027344 65.226562 C 186.5 66.542969 186.9375 67.875 187.34375 69.214844 C 187.75 70.554688 188.125 71.902344 188.464844 73.261719 C 188.804688 74.621094 189.109375 75.984375 189.382812 77.359375 C 189.65625 78.730469 189.894531 80.113281 190.101562 81.496094 C 190.304688 82.882812 190.476562 84.269531 190.613281 85.664062 C 190.75 87.058594 190.851562 88.453125 190.921875 89.851562 C 190.992188 91.25 191.023438 92.652344 191.023438 94.050781 C 191.023438 95.453125 190.992188 96.851562 190.921875 98.25 C 190.851562 99.648438 190.75 101.042969 190.613281 102.4375 C 190.476562 103.832031 190.304688 105.21875 190.101562 106.605469 C 189.894531 107.992188 189.65625 109.371094 189.382812 110.742188 C 189.109375 112.117188 188.804688 113.480469 188.464844 114.839844 C 188.125 116.199219 187.75 117.546875 187.34375 118.886719 C 186.9375 120.226562 186.5 121.558594 186.027344 122.875 C 185.554688 124.195312 185.054688 125.5 184.519531 126.792969 C 183.984375 128.085938 183.414062 129.367188 182.816406 130.632812 C 182.21875 131.898438 181.589844 133.148438 180.929688 134.382812 C 180.273438 135.621094 179.582031 136.835938 178.863281 138.039062 C 178.144531 139.238281 177.394531 140.421875 176.617188 141.585938 C 175.839844 142.75 175.035156 143.894531 174.203125 145.019531 C 173.367188 146.144531 172.507812 147.25 171.621094 148.332031 C 170.734375 149.414062 169.820312 150.472656 168.878906 151.511719 C 167.941406 152.546875 166.976562 153.5625 165.988281 154.550781 C 164.996094 155.542969 163.984375 156.507812 162.949219 157.449219 C 161.910156 158.386719 160.851562 159.300781 159.769531 160.191406 C 158.691406 161.078125 157.585938 161.941406 156.464844 162.773438 C 155.339844 163.609375 154.195312 164.414062 153.035156 165.191406 C 151.871094 165.96875 150.6875 166.71875 149.488281 167.4375 C 148.289062 168.160156 147.070312 168.847656 145.835938 169.507812 C 144.605469 170.167969 143.355469 170.800781 142.089844 171.398438 C 140.824219 171.996094 139.546875 172.5625 138.253906 173.097656 C 136.960938 173.636719 135.65625 174.140625 134.339844 174.609375 C 133.023438 175.082031 131.695312 175.523438 130.355469 175.929688 C 129.015625 176.335938 127.667969 176.707031 126.3125 177.046875 C 124.953125 177.386719 123.589844 177.695312 122.21875 177.96875 C 120.847656 178.242188 119.46875 178.480469 118.082031 178.6875 C 116.699219 178.890625 115.3125 179.0625 113.917969 179.199219 C 112.527344 179.335938 111.132812 179.441406 109.734375 179.507812 C 108.339844 179.578125 106.941406 179.613281 105.539062 179.613281 Z M 105.539062 32.9375 C 103.542969 32.9375 101.546875 33.035156 99.554688 33.230469 C 97.566406 33.425781 95.589844 33.71875 93.628906 34.109375 C 91.667969 34.5 89.730469 34.984375 87.816406 35.566406 C 85.902344 36.148438 84.023438 36.820312 82.175781 37.585938 C 80.328125 38.355469 78.519531 39.207031 76.757812 40.152344 C 74.992188 41.09375 73.28125 42.125 71.617188 43.234375 C 69.953125 44.347656 68.351562 45.539062 66.804688 46.808594 C 65.257812 48.078125 63.777344 49.421875 62.363281 50.835938 C 60.949219 52.25 59.609375 53.734375 58.339844 55.28125 C 57.070312 56.828125 55.882812 58.433594 54.769531 60.097656 C 53.660156 61.761719 52.632812 63.476562 51.691406 65.242188 C 50.746094 67.007812 49.894531 68.8125 49.128906 70.664062 C 48.363281 72.511719 47.691406 74.394531 47.109375 76.308594 C 46.53125 78.226562 46.042969 80.164062 45.652344 82.128906 C 45.265625 84.089844 44.972656 86.070312 44.773438 88.0625 C 44.578125 90.050781 44.480469 92.050781 44.480469 94.050781 C 44.480469 96.050781 44.578125 98.050781 44.773438 100.042969 C 44.972656 102.035156 45.265625 104.011719 45.652344 105.972656 C 46.042969 107.9375 46.53125 109.875 47.109375 111.792969 C 47.691406 113.707031 48.363281 115.589844 49.128906 117.4375 C 49.894531 119.289062 50.746094 121.09375 51.691406 122.859375 C 52.632812 124.625 53.660156 126.339844 54.769531 128.003906 C 55.882812 129.667969 57.070312 131.273438 58.339844 132.820312 C 59.609375 134.371094 60.949219 135.851562 62.363281 137.265625 C 63.777344 138.679688 65.257812 140.023438 66.804688 141.292969 C 68.351562 142.5625 69.953125 143.753906 71.617188 144.867188 C 73.28125 145.976562 74.992188 147.007812 76.757812 147.949219 C 78.519531 148.894531 80.328125 149.75 82.175781 150.515625 C 84.023438 151.28125 85.902344 151.953125 87.816406 152.535156 C 89.730469 153.117188 91.667969 153.601562 93.628906 153.992188 C 95.589844 154.382812 97.566406 154.675781 99.554688 154.871094 C 101.546875 155.066406 103.542969 155.167969 105.539062 155.167969 C 107.539062 155.167969 109.535156 155.066406 111.527344 154.871094 C 113.515625 154.675781 115.492188 154.382812 117.453125 153.992188 C 119.414062 153.601562 121.351562 153.117188 123.265625 152.535156 C 125.179688 151.953125 127.058594 151.28125 128.90625 150.515625 C 130.753906 149.75 132.5625 148.894531 134.324219 147.949219 C 136.089844 147.007812 137.800781 145.976562 139.464844 144.867188 C 141.125 143.753906 142.730469 142.5625 144.277344 141.292969 C 145.824219 140.023438 147.304688 138.679688 148.71875 137.265625 C 150.132812 135.851562 151.472656 134.371094 152.742188 132.820312 C 154.007812 131.273438 155.199219 129.667969 156.308594 128.003906 C 157.421875 126.339844 158.449219 124.625 159.390625 122.859375 C 160.332031 121.09375 161.1875 119.289062 161.953125 117.4375 C 162.71875 115.589844 163.390625 113.707031 163.972656 111.792969 C 164.550781 109.875 165.039062 107.9375 165.425781 105.972656 C 165.816406 104.011719 166.109375 102.035156 166.308594 100.042969 C 166.503906 98.050781 166.601562 96.050781 166.601562 94.050781 C 166.601562 92.050781 166.503906 90.050781 166.308594 88.0625 C 166.109375 86.070312 165.816406 84.089844 165.429688 82.128906 C 165.039062 80.164062 164.550781 78.226562 163.972656 76.308594 C 163.390625 74.394531 162.71875 72.511719 161.953125 70.664062 C 161.1875 68.8125 160.332031 67.007812 159.390625 65.242188 C 158.449219 63.476562 157.421875 61.761719 156.308594 60.097656 C 155.199219 58.433594 154.007812 56.828125 152.742188 55.28125 C 151.472656 53.734375 150.132812 52.25 148.71875 50.835938 C 147.304688 49.421875 145.824219 48.078125 144.277344 46.808594 C 142.730469 45.539062 141.125 44.347656 139.464844 43.234375 C 137.800781 42.125 136.089844 41.09375 134.324219 40.152344 C 132.5625 39.207031 130.753906 38.355469 128.90625 37.585938 C 127.058594 36.820312 125.179688 36.148438 123.265625 35.566406 C 121.351562 34.984375 119.414062 34.5 117.453125 34.109375 C 115.492188 33.71875 113.515625 33.425781 111.527344 33.230469 C 109.535156 33.035156 107.539062 32.9375 105.539062 32.9375 Z M 105.539062 32.9375 " fill-opacity="1" fill-rule="nonzero"/></g><g clip-path="url(#id2)"><path fill="#353f6d" d="M 191.023438 216.28125 C 189.332031 216.277344 187.710938 215.933594 186.160156 215.253906 C 184.613281 214.574219 183.261719 213.613281 182.109375 212.371094 L 137.046875 163.476562 C 136.445312 162.898438 135.90625 162.265625 135.433594 161.578125 C 134.960938 160.890625 134.5625 160.160156 134.238281 159.390625 C 133.914062 158.621094 133.671875 157.824219 133.507812 157.003906 C 133.347656 156.183594 133.273438 155.355469 133.28125 154.523438 C 133.289062 153.6875 133.382812 152.859375 133.558594 152.042969 C 133.738281 151.226562 133.996094 150.4375 134.335938 149.671875 C 134.675781 148.910156 135.089844 148.1875 135.578125 147.511719 C 136.066406 146.832031 136.617188 146.210938 137.230469 145.644531 C 137.847656 145.078125 138.511719 144.582031 139.230469 144.152344 C 139.945312 143.726562 140.699219 143.375 141.488281 143.101562 C 142.277344 142.824219 143.085938 142.636719 143.914062 142.527344 C 144.742188 142.417969 145.570312 142.394531 146.402344 142.457031 C 147.238281 142.519531 148.054688 142.667969 148.855469 142.898438 C 149.660156 143.128906 150.429688 143.4375 151.167969 143.824219 C 151.910156 144.214844 152.601562 144.675781 153.246094 145.203125 C 153.890625 145.734375 154.476562 146.324219 155 146.976562 L 199.941406 195.867188 C 200.726562 196.742188 201.375 197.707031 201.882812 198.769531 C 202.390625 199.828125 202.742188 200.9375 202.929688 202.097656 C 203.117188 203.257812 203.136719 204.421875 202.992188 205.589844 C 202.84375 206.757812 202.535156 207.878906 202.066406 208.957031 C 201.59375 210.03125 200.980469 211.019531 200.226562 211.921875 C 199.46875 212.820312 198.601562 213.597656 197.625 214.246094 C 196.644531 214.894531 195.59375 215.394531 194.472656 215.742188 C 193.347656 216.085938 192.199219 216.265625 191.023438 216.28125 Z M 191.023438 216.28125 " fill-opacity="1" fill-rule="nonzero"/></g></svg>