<svg xmlns="http://www.w3.org/2000/svg" xmlns:xlink="http://www.w3.org/1999/xlink" width="300" zoomAndPan="magnify" viewBox="0 0 224.87999 225" height="300" preserveAspectRatio="xMidYMid meet" version="1.0"><defs><clipPath id="id1"><path d="M 18 14 L 214 14 L 214 210.996094 L 18 210.996094 Z M 18 14 " clip-rule="nonzero"/></clipPath></defs><g clip-path="url(#id1)"><path fill="#ffffff" d="M 158.402344 145.621094 C 170.613281 131.277344 177.316406 113.285156 177.316406 94.238281 C 177.316406 73.007812 169.042969 53.046875 154.023438 38.03125 C 139.003906 23.019531 119.035156 14.75 97.789062 14.75 C 76.546875 14.75 56.578125 23.019531 41.558594 38.03125 C 10.558594 69.027344 10.558594 119.457031 41.558594 150.449219 C 56.578125 165.460938 76.546875 173.730469 97.789062 173.730469 C 116.84375 173.730469 134.839844 167.03125 149.191406 154.828125 L 202.574219 208.191406 C 203.84375 209.460938 205.511719 210.097656 207.179688 210.097656 C 208.84375 210.097656 210.511719 209.460938 211.785156 208.191406 C 214.328125 205.648438 214.328125 201.527344 211.785156 198.984375 Z M 50.769531 141.238281 C 24.847656 115.328125 24.847656 73.15625 50.769531 47.238281 C 76.695312 21.332031 118.875 21.320312 144.8125 47.238281 C 157.367188 59.796875 164.289062 76.484375 164.289062 94.238281 C 164.289062 111.992188 157.367188 128.6875 144.8125 141.238281 C 118.875 167.164062 76.695312 167.148438 50.769531 141.238281 Z M 50.769531 141.238281 " fill-opacity="1" fill-rule="nonzero"/></g></svg>