<svg xmlns="http://www.w3.org/2000/svg" xmlns:xlink="http://www.w3.org/1999/xlink" width="300" zoomAndPan="magnify" viewBox="0 0 224.87999 225" height="300" preserveAspectRatio="xMidYMid meet" version="1.0"><defs><clipPath id="id1"><path d="M 10.460938 20.164062 L 214.351562 20.164062 L 214.351562 204.5625 L 10.460938 204.5625 Z M 10.460938 20.164062 " clip-rule="nonzero"/></clipPath></defs><g clip-path="url(#id1)"><path fill="#ffffff" d="M 190.078125 20.234375 L 34.734375 20.234375 C 33.9375 20.234375 33.144531 20.277344 32.355469 20.355469 C 31.566406 20.433594 30.78125 20.550781 30 20.707031 C 29.222656 20.859375 28.453125 21.054688 27.691406 21.285156 C 26.929688 21.515625 26.183594 21.785156 25.449219 22.089844 C 24.714844 22.390625 24 22.730469 23.296875 23.105469 C 22.597656 23.480469 21.917969 23.886719 21.253906 24.328125 C 20.59375 24.769531 19.957031 25.242188 19.34375 25.746094 C 18.730469 26.25 18.140625 26.785156 17.578125 27.34375 C 17.015625 27.90625 16.484375 28.492188 15.980469 29.105469 C 15.476562 29.71875 15.003906 30.355469 14.5625 31.015625 C 14.117188 31.675781 13.710938 32.355469 13.335938 33.054688 C 12.960938 33.757812 12.621094 34.472656 12.316406 35.207031 C 12.011719 35.9375 11.742188 36.683594 11.511719 37.445312 C 11.28125 38.203125 11.089844 38.972656 10.933594 39.75 C 10.777344 40.53125 10.660156 41.3125 10.582031 42.105469 C 10.5 42.894531 10.460938 43.6875 10.460938 44.480469 L 10.460938 141.457031 C 10.460938 142.25 10.5 143.042969 10.582031 143.832031 C 10.660156 144.621094 10.777344 145.40625 10.933594 146.183594 C 11.089844 146.964844 11.28125 147.730469 11.511719 148.492188 C 11.742188 149.25 12.011719 149.996094 12.316406 150.730469 C 12.621094 151.464844 12.960938 152.179688 13.335938 152.878906 C 13.710938 153.578125 14.117188 154.257812 14.5625 154.917969 C 15.003906 155.578125 15.476562 156.214844 15.980469 156.828125 C 16.484375 157.441406 17.015625 158.03125 17.578125 158.589844 C 18.140625 159.152344 18.730469 159.683594 19.34375 160.1875 C 19.957031 160.691406 20.59375 161.164062 21.253906 161.605469 C 21.917969 162.046875 22.597656 162.457031 23.296875 162.828125 C 24 163.203125 24.714844 163.542969 25.449219 163.847656 C 26.183594 164.152344 26.929688 164.417969 27.691406 164.652344 C 28.453125 164.882812 29.222656 165.074219 30 165.230469 C 30.78125 165.386719 31.566406 165.503906 32.355469 165.582031 C 33.144531 165.660156 33.9375 165.699219 34.734375 165.699219 L 80.851562 165.699219 L 108.523438 202.550781 C 108.75 202.851562 109.007812 203.125 109.296875 203.363281 C 109.585938 203.605469 109.898438 203.8125 110.234375 203.980469 C 110.574219 204.148438 110.925781 204.277344 111.292969 204.363281 C 111.65625 204.449219 112.03125 204.492188 112.40625 204.492188 C 112.785156 204.492188 113.15625 204.449219 113.523438 204.363281 C 113.890625 204.277344 114.242188 204.148438 114.578125 203.980469 C 114.914062 203.8125 115.226562 203.605469 115.515625 203.363281 C 115.804688 203.125 116.0625 202.851562 116.289062 202.550781 L 143.960938 165.699219 L 190.078125 165.699219 C 190.875 165.699219 191.667969 165.660156 192.457031 165.582031 C 193.25 165.503906 194.035156 165.386719 194.8125 165.230469 C 195.59375 165.074219 196.363281 164.882812 197.121094 164.652344 C 197.882812 164.421875 198.628906 164.152344 199.363281 163.847656 C 200.097656 163.542969 200.816406 163.207031 201.515625 162.832031 C 202.21875 162.457031 202.898438 162.046875 203.558594 161.605469 C 204.21875 161.167969 204.855469 160.695312 205.472656 160.191406 C 206.085938 159.6875 206.671875 159.152344 207.234375 158.59375 C 207.796875 158.03125 208.332031 157.445312 208.835938 156.832031 C 209.339844 156.214844 209.8125 155.578125 210.253906 154.921875 C 210.695312 154.261719 211.105469 153.582031 211.480469 152.878906 C 211.855469 152.179688 212.191406 151.464844 212.496094 150.730469 C 212.800781 149.996094 213.070312 149.25 213.300781 148.492188 C 213.53125 147.730469 213.726562 146.964844 213.882812 146.183594 C 214.039062 145.40625 214.15625 144.621094 214.234375 143.832031 C 214.3125 143.042969 214.351562 142.25 214.351562 141.457031 L 214.351562 44.480469 C 214.351562 43.6875 214.3125 42.894531 214.234375 42.105469 C 214.15625 41.3125 214.039062 40.53125 213.882812 39.75 C 213.726562 38.972656 213.53125 38.203125 213.300781 37.445312 C 213.070312 36.683594 212.800781 35.9375 212.496094 35.207031 C 212.191406 34.472656 211.855469 33.753906 211.480469 33.054688 C 211.105469 32.355469 210.695312 31.675781 210.253906 31.015625 C 209.8125 30.355469 209.339844 29.71875 208.835938 29.105469 C 208.332031 28.492188 207.796875 27.90625 207.234375 27.34375 C 206.671875 26.78125 206.085938 26.25 205.472656 25.746094 C 204.855469 25.242188 204.21875 24.769531 203.558594 24.328125 C 202.898438 23.886719 202.21875 23.480469 201.515625 23.105469 C 200.816406 22.730469 200.097656 22.390625 199.363281 22.085938 C 198.628906 21.785156 197.882812 21.515625 197.121094 21.285156 C 196.363281 21.054688 195.59375 20.859375 194.8125 20.707031 C 194.035156 20.550781 193.25 20.433594 192.457031 20.355469 C 191.667969 20.277344 190.875 20.234375 190.078125 20.234375 Z M 204.644531 141.457031 C 204.640625 142.410156 204.546875 143.355469 204.359375 144.292969 C 204.171875 145.230469 203.898438 146.140625 203.53125 147.019531 C 203.164062 147.902344 202.714844 148.742188 202.183594 149.535156 C 201.652344 150.328125 201.050781 151.0625 200.371094 151.738281 C 199.695312 152.414062 198.960938 153.015625 198.167969 153.546875 C 197.371094 154.078125 196.535156 154.527344 195.648438 154.890625 C 194.765625 155.257812 193.855469 155.535156 192.917969 155.722656 C 191.980469 155.910156 191.035156 156.003906 190.078125 156.003906 L 141.535156 156.003906 C 140.769531 156.003906 140.046875 156.175781 139.363281 156.515625 C 138.675781 156.859375 138.105469 157.335938 137.648438 157.945312 L 112.40625 191.558594 L 87.160156 157.945312 C 86.703125 157.332031 86.132812 156.855469 85.449219 156.515625 C 84.765625 156.175781 84.042969 156.003906 83.28125 156.003906 L 34.734375 156.003906 C 33.777344 156.003906 32.832031 155.910156 31.894531 155.722656 C 30.957031 155.535156 30.046875 155.257812 29.164062 154.890625 C 28.28125 154.527344 27.441406 154.078125 26.648438 153.546875 C 25.851562 153.015625 25.117188 152.414062 24.441406 151.738281 C 23.765625 151.0625 23.160156 150.328125 22.628906 149.535156 C 22.097656 148.742188 21.648438 147.902344 21.28125 147.019531 C 20.917969 146.140625 20.640625 145.230469 20.453125 144.292969 C 20.265625 143.355469 20.171875 142.410156 20.171875 141.457031 L 20.171875 44.480469 C 20.171875 43.523438 20.265625 42.578125 20.453125 41.644531 C 20.640625 40.707031 20.917969 39.796875 21.28125 38.914062 C 21.648438 38.035156 22.097656 37.195312 22.628906 36.402344 C 23.160156 35.609375 23.765625 34.875 24.441406 34.199219 C 25.117188 33.523438 25.851562 32.921875 26.648438 32.390625 C 27.441406 31.859375 28.28125 31.410156 29.164062 31.042969 C 30.046875 30.679688 30.957031 30.402344 31.894531 30.214844 C 32.832031 30.027344 33.777344 29.933594 34.734375 29.933594 L 190.078125 29.933594 C 191.035156 29.933594 191.980469 30.027344 192.917969 30.214844 C 193.855469 30.402344 194.765625 30.679688 195.648438 31.042969 C 196.535156 31.410156 197.371094 31.859375 198.167969 32.390625 C 198.960938 32.921875 199.695312 33.523438 200.371094 34.199219 C 201.050781 34.875 201.652344 35.609375 202.183594 36.402344 C 202.714844 37.195312 203.164062 38.035156 203.53125 38.914062 C 203.898438 39.796875 204.171875 40.707031 204.359375 41.644531 C 204.546875 42.578125 204.640625 43.523438 204.644531 44.480469 Z M 136.679688 73.574219 C 136.675781 75.476562 136.453125 77.355469 136.007812 79.207031 C 135.5625 81.058594 134.910156 82.835938 134.046875 84.53125 C 133.183594 86.230469 132.136719 87.808594 130.90625 89.261719 C 129.671875 90.714844 128.289062 92.003906 126.753906 93.132812 C 125.363281 94.058594 124.101562 95.128906 122.964844 96.347656 C 121.824219 97.566406 120.84375 98.898438 120.019531 100.347656 C 119.195312 101.796875 118.550781 103.320312 118.085938 104.921875 C 117.617188 106.519531 117.34375 108.152344 117.261719 109.816406 L 117.261719 112.363281 C 117.261719 112.683594 117.230469 112.996094 117.167969 113.308594 C 117.105469 113.621094 117.015625 113.925781 116.890625 114.21875 C 116.769531 114.511719 116.621094 114.792969 116.441406 115.058594 C 116.265625 115.320312 116.066406 115.566406 115.839844 115.792969 C 115.613281 116.015625 115.367188 116.21875 115.105469 116.394531 C 114.839844 116.570312 114.558594 116.722656 114.265625 116.84375 C 113.96875 116.964844 113.667969 117.058594 113.355469 117.121094 C 113.042969 117.179688 112.726562 117.210938 112.40625 117.210938 C 112.089844 117.210938 111.773438 117.179688 111.460938 117.121094 C 111.148438 117.058594 110.84375 116.964844 110.550781 116.84375 C 110.253906 116.722656 109.976562 116.570312 109.710938 116.394531 C 109.445312 116.21875 109.199219 116.015625 108.972656 115.792969 C 108.75 115.566406 108.546875 115.320312 108.371094 115.058594 C 108.191406 114.792969 108.042969 114.511719 107.921875 114.21875 C 107.800781 113.925781 107.707031 113.621094 107.644531 113.308594 C 107.582031 112.996094 107.550781 112.683594 107.550781 112.363281 L 107.550781 109.816406 C 107.621094 107.386719 107.976562 105 108.613281 102.65625 C 109.253906 100.3125 110.15625 98.078125 111.328125 95.945312 C 112.496094 93.816406 113.898438 91.855469 115.535156 90.058594 C 117.175781 88.261719 119 86.679688 121.011719 85.316406 C 121.511719 84.949219 121.988281 84.554688 122.4375 84.128906 C 122.886719 83.703125 123.308594 83.25 123.699219 82.769531 C 124.089844 82.289062 124.449219 81.785156 124.777344 81.261719 C 125.105469 80.734375 125.398438 80.191406 125.65625 79.625 C 125.914062 79.0625 126.132812 78.488281 126.316406 77.894531 C 126.503906 77.304688 126.648438 76.703125 126.753906 76.09375 C 126.863281 75.484375 126.929688 74.867188 126.960938 74.25 C 126.988281 73.632812 126.976562 73.015625 126.925781 72.398438 C 126.878906 71.78125 126.789062 71.167969 126.660156 70.5625 C 126.53125 69.957031 126.363281 69.359375 126.160156 68.777344 C 125.957031 68.191406 125.714844 67.621094 125.4375 67.070312 C 125.160156 66.515625 124.847656 65.980469 124.503906 65.46875 C 124.15625 64.953125 123.78125 64.460938 123.371094 63.996094 C 122.964844 63.53125 122.527344 63.09375 122.066406 62.679688 C 121.601562 62.269531 121.113281 61.890625 120.597656 61.542969 C 120.085938 61.195312 119.554688 60.882812 119 60.601562 C 118.449219 60.320312 117.878906 60.078125 117.296875 59.871094 C 116.710938 59.660156 116.117188 59.492188 115.511719 59.359375 C 114.90625 59.226562 114.292969 59.136719 113.675781 59.082031 C 113.058594 59.027344 112.4375 59.011719 111.820312 59.039062 C 111.199219 59.0625 110.585938 59.128906 109.972656 59.230469 C 109.363281 59.335938 108.757812 59.476562 108.167969 59.65625 C 107.574219 59.835938 106.992188 60.054688 106.429688 60.308594 C 105.863281 60.5625 105.316406 60.851562 104.789062 61.175781 C 104.257812 61.5 103.753906 61.855469 103.269531 62.246094 C 102.789062 62.632812 102.332031 63.050781 101.902344 63.496094 C 101.472656 63.945312 101.074219 64.417969 100.703125 64.914062 C 100.335938 65.410156 100 65.929688 99.699219 66.46875 C 99.394531 67.011719 99.128906 67.566406 98.894531 68.140625 C 98.664062 68.71875 98.46875 69.304688 98.3125 69.902344 C 98.15625 70.5 98.039062 71.109375 97.960938 71.722656 C 97.882812 72.335938 97.84375 72.953125 97.84375 73.574219 C 97.84375 73.890625 97.8125 74.207031 97.75 74.519531 C 97.6875 74.832031 97.59375 75.132812 97.472656 75.429688 C 97.351562 75.722656 97.203125 76 97.023438 76.265625 C 96.847656 76.53125 96.648438 76.777344 96.421875 77 C 96.195312 77.226562 95.949219 77.425781 95.6875 77.605469 C 95.421875 77.78125 95.140625 77.929688 94.847656 78.050781 C 94.550781 78.175781 94.25 78.265625 93.9375 78.328125 C 93.621094 78.390625 93.308594 78.421875 92.988281 78.421875 C 92.667969 78.421875 92.355469 78.390625 92.042969 78.328125 C 91.730469 78.265625 91.425781 78.175781 91.128906 78.050781 C 90.835938 77.929688 90.554688 77.78125 90.292969 77.605469 C 90.027344 77.425781 89.78125 77.226562 89.554688 77 C 89.332031 76.777344 89.128906 76.53125 88.953125 76.265625 C 88.773438 76 88.625 75.722656 88.503906 75.429688 C 88.382812 75.132812 88.289062 74.832031 88.226562 74.519531 C 88.164062 74.207031 88.132812 73.890625 88.132812 73.574219 C 88.132812 72.777344 88.171875 71.988281 88.25 71.195312 C 88.328125 70.40625 88.445312 69.621094 88.601562 68.84375 C 88.753906 68.0625 88.949219 67.292969 89.179688 66.535156 C 89.410156 65.773438 89.675781 65.027344 89.980469 64.292969 C 90.285156 63.5625 90.625 62.84375 91 62.144531 C 91.375 61.445312 91.78125 60.761719 92.226562 60.101562 C 92.667969 59.441406 93.140625 58.804688 93.644531 58.191406 C 94.148438 57.578125 94.679688 56.992188 95.242188 56.429688 C 95.804688 55.867188 96.394531 55.335938 97.007812 54.832031 C 97.621094 54.328125 98.261719 53.855469 98.921875 53.414062 C 99.582031 52.972656 100.261719 52.566406 100.964844 52.191406 C 101.664062 51.816406 102.382812 51.476562 103.117188 51.171875 C 103.851562 50.871094 104.601562 50.601562 105.359375 50.371094 C 106.121094 50.140625 106.890625 49.949219 107.671875 49.792969 C 108.449219 49.640625 109.238281 49.523438 110.027344 49.445312 C 110.820312 49.367188 111.613281 49.328125 112.40625 49.328125 C 113.203125 49.328125 113.996094 49.367188 114.785156 49.445312 C 115.578125 49.523438 116.363281 49.640625 117.140625 49.792969 C 117.921875 49.949219 118.691406 50.140625 119.453125 50.371094 C 120.214844 50.601562 120.960938 50.871094 121.695312 51.171875 C 122.429688 51.476562 123.148438 51.816406 123.847656 52.191406 C 124.550781 52.566406 125.230469 52.972656 125.890625 53.414062 C 126.554688 53.855469 127.191406 54.328125 127.804688 54.832031 C 128.417969 55.335938 129.007812 55.867188 129.570312 56.429688 C 130.132812 56.992188 130.664062 57.578125 131.167969 58.191406 C 131.675781 58.804688 132.148438 59.441406 132.589844 60.101562 C 133.03125 60.761719 133.4375 61.445312 133.8125 62.144531 C 134.1875 62.84375 134.527344 63.5625 134.832031 64.292969 C 135.136719 65.027344 135.402344 65.773438 135.632812 66.535156 C 135.863281 67.292969 136.058594 68.0625 136.214844 68.84375 C 136.367188 69.621094 136.484375 70.40625 136.5625 71.195312 C 136.640625 71.988281 136.679688 72.777344 136.679688 73.574219 Z M 117.261719 136.609375 C 117.261719 136.925781 117.230469 137.242188 117.167969 137.554688 C 117.105469 137.867188 117.015625 138.167969 116.890625 138.464844 C 116.769531 138.757812 116.621094 139.035156 116.441406 139.300781 C 116.265625 139.566406 116.066406 139.8125 115.839844 140.035156 C 115.613281 140.261719 115.367188 140.460938 115.105469 140.640625 C 114.839844 140.816406 114.558594 140.964844 114.265625 141.085938 C 113.96875 141.210938 113.667969 141.300781 113.355469 141.363281 C 113.042969 141.425781 112.726562 141.457031 112.40625 141.457031 C 112.089844 141.457031 111.773438 141.425781 111.460938 141.363281 C 111.148438 141.300781 110.84375 141.210938 110.550781 141.085938 C 110.253906 140.964844 109.976562 140.816406 109.710938 140.640625 C 109.445312 140.460938 109.199219 140.261719 108.972656 140.035156 C 108.75 139.8125 108.546875 139.566406 108.371094 139.300781 C 108.191406 139.035156 108.042969 138.757812 107.921875 138.464844 C 107.800781 138.167969 107.707031 137.867188 107.644531 137.554688 C 107.582031 137.242188 107.550781 136.925781 107.550781 136.609375 C 107.550781 136.289062 107.582031 135.972656 107.644531 135.660156 C 107.707031 135.351562 107.800781 135.046875 107.921875 134.753906 C 108.042969 134.457031 108.191406 134.179688 108.371094 133.914062 C 108.546875 133.648438 108.75 133.40625 108.972656 133.179688 C 109.199219 132.953125 109.445312 132.753906 109.710938 132.574219 C 109.976562 132.398438 110.253906 132.25 110.550781 132.128906 C 110.84375 132.007812 111.148438 131.914062 111.460938 131.851562 C 111.773438 131.789062 112.089844 131.757812 112.40625 131.757812 C 112.726562 131.757812 113.042969 131.789062 113.355469 131.851562 C 113.667969 131.914062 113.96875 132.007812 114.265625 132.128906 C 114.558594 132.25 114.839844 132.398438 115.105469 132.574219 C 115.367188 132.753906 115.613281 132.953125 115.839844 133.179688 C 116.066406 133.40625 116.265625 133.648438 116.441406 133.914062 C 116.621094 134.179688 116.769531 134.457031 116.890625 134.753906 C 117.015625 135.046875 117.105469 135.351562 117.167969 135.660156 C 117.230469 135.972656 117.261719 136.289062 117.261719 136.609375 Z M 117.261719 136.609375 " fill-opacity="1" fill-rule="nonzero"/></g></svg>