<svg xmlns="http://www.w3.org/2000/svg" xmlns:xlink="http://www.w3.org/1999/xlink" width="300" zoomAndPan="magnify" viewBox="0 0 224.87999 225" height="300" preserveAspectRatio="xMidYMid meet" version="1.0"><defs><clipPath id="id1"><path d="M 28.371094 13.15625 L 196.28125 13.15625 L 196.28125 211.800781 L 28.371094 211.800781 Z M 28.371094 13.15625 " clip-rule="nonzero"/></clipPath></defs><g clip-path="url(#id1)"><path fill="#ffffff" d="M 196.003906 37.601562 C 195.980469 35.984375 194.644531 34.671875 193.03125 34.671875 L 170.933594 34.671875 C 171.003906 32.878906 171.050781 31.042969 171.074219 29.179688 L 173.15625 29.179688 C 174.792969 29.179688 176.125 27.84375 176.125 26.203125 L 176.125 16.132812 C 176.125 14.492188 174.792969 13.15625 173.15625 13.15625 L 51.546875 13.15625 C 49.90625 13.15625 48.574219 14.492188 48.574219 16.132812 L 48.574219 26.203125 C 48.574219 27.84375 49.90625 29.179688 51.546875 29.179688 L 53.632812 29.179688 C 53.65625 31.035156 53.703125 32.871094 53.773438 34.671875 L 31.667969 34.671875 C 30.054688 34.671875 28.722656 35.984375 28.699219 37.605469 C 28.6875 38.203125 28.558594 52.472656 34.398438 68.484375 C 39.777344 83.226562 51.429688 102.175781 76.4375 109.082031 C 83.78125 118.75 90.773438 123.507812 93.683594 125.21875 C 94.464844 128.929688 97.539062 131.011719 100.695312 131.863281 L 100.695312 133.839844 L 99.019531 133.839844 C 95.660156 133.839844 92.925781 136.578125 92.925781 139.941406 C 92.925781 140.941406 93.171875 141.910156 93.628906 142.777344 C 90.703125 145.238281 89.351562 148.449219 88.738281 150.621094 L 79.894531 150.621094 C 78.257812 150.621094 76.921875 151.957031 76.921875 153.597656 L 76.921875 158.558594 L 69.496094 158.558594 C 67.855469 158.558594 66.523438 159.890625 66.523438 161.53125 L 66.523438 196.699219 L 64.269531 196.699219 C 62.628906 196.699219 61.296875 198.03125 61.296875 199.671875 L 61.296875 208.828125 C 61.296875 210.46875 62.628906 211.800781 64.269531 211.800781 L 160.886719 211.800781 C 162.523438 211.800781 163.855469 210.46875 163.855469 208.828125 L 163.855469 199.671875 C 163.855469 198.03125 162.523438 196.699219 160.886719 196.699219 L 158.1875 196.699219 L 158.1875 161.53125 C 158.1875 159.890625 156.855469 158.558594 155.214844 158.558594 L 147.789062 158.558594 L 147.789062 153.597656 C 147.789062 151.957031 146.453125 150.621094 144.816406 150.621094 L 135.972656 150.621094 C 135.359375 148.453125 134.003906 145.238281 131.082031 142.777344 C 131.539062 141.914062 131.785156 140.941406 131.785156 139.941406 C 131.785156 136.578125 129.050781 133.839844 125.691406 133.839844 L 124.011719 133.839844 L 124.011719 131.867188 C 127.167969 131.011719 130.238281 128.929688 131.023438 125.21875 C 133.933594 123.507812 140.921875 118.75 148.269531 109.078125 C 173.273438 102.167969 184.925781 83.222656 190.304688 68.484375 C 196.136719 52.488281 196.011719 38.203125 196.003906 37.601562 Z M 82.867188 158.558594 L 82.867188 156.574219 L 141.84375 156.574219 L 141.84375 158.558594 Z M 152.246094 196.699219 L 72.464844 196.699219 L 72.464844 164.507812 L 152.246094 164.507812 Z M 157.914062 202.648438 L 157.914062 205.851562 L 67.238281 205.851562 L 67.238281 202.648438 Z M 95.046875 150.621094 C 95.808594 148.925781 97.167969 147.0625 99.582031 146.046875 L 125.128906 146.046875 C 127.566406 147.070312 128.925781 148.933594 129.679688 150.621094 Z M 125.6875 140.09375 L 99.019531 140.09375 C 98.9375 140.09375 98.867188 140.023438 98.867188 139.941406 C 98.867188 139.859375 98.9375 139.789062 99.019531 139.789062 L 125.6875 139.789062 C 125.773438 139.789062 125.84375 139.859375 125.84375 139.941406 C 125.84375 140.023438 125.769531 140.09375 125.6875 140.09375 Z M 126.96875 120.660156 C 125.9375 121.152344 125.269531 122.207031 125.269531 123.351562 C 125.269531 126.152344 121.097656 126.355469 120.929688 126.363281 C 119.324219 126.421875 118.066406 127.730469 118.066406 129.335938 L 118.066406 133.839844 L 106.636719 133.839844 L 106.636719 129.335938 C 106.636719 127.730469 105.378906 126.421875 103.78125 126.363281 C 103.601562 126.359375 99.4375 126.160156 99.4375 123.351562 C 99.4375 122.210938 98.773438 121.15625 97.75 120.667969 C 97.65625 120.621094 88.171875 115.890625 78.867188 102.292969 C 70.304688 89.777344 60.082031 66.988281 59.570312 29.179688 L 165.136719 29.179688 C 164.625 66.988281 154.402344 89.777344 145.835938 102.292969 C 136.535156 115.886719 127.050781 120.621094 126.96875 120.660156 Z M 54.515625 23.226562 L 54.515625 19.109375 L 170.183594 19.109375 L 170.183594 23.226562 Z M 54.089844 40.621094 C 56.054688 69.492188 63.789062 88.839844 70.945312 100.910156 C 56.546875 94.867188 46.152344 83.316406 40.003906 66.507812 C 36.039062 55.664062 35.003906 45.398438 34.734375 40.621094 Z M 153.761719 100.90625 C 160.917969 88.839844 168.648438 69.488281 170.617188 40.621094 L 189.964844 40.621094 C 189.695312 45.398438 188.664062 55.660156 184.695312 66.507812 C 178.546875 83.3125 168.15625 94.863281 153.761719 100.90625 Z M 153.761719 100.90625 " fill-opacity="1" fill-rule="nonzero"/></g></svg>